<?xml version="1.0" encoding="UTF-8" standalone="no"?>
<!-- Generator: Adobe Illustrator 24.1.1, SVG Export Plug-In . SVG Version: 6.00 Build 0)  -->

<svg
   xmlns:dc="http://purl.org/dc/elements/1.1/"
   xmlns:cc="http://creativecommons.org/ns#"
   xmlns:rdf="http://www.w3.org/1999/02/22-rdf-syntax-ns#"
   xmlns:svg="http://www.w3.org/2000/svg"
   xmlns="http://www.w3.org/2000/svg"
   xmlns:sodipodi="http://sodipodi.sourceforge.net/DTD/sodipodi-0.dtd"
   xmlns:inkscape="http://www.inkscape.org/namespaces/inkscape"
   version="1.1"
   id="Calque_1"
   x="0px"
   y="0px"
   viewBox="0 0 999.99997 170.29258"
   xml:space="preserve"
   sodipodi:docname="index.svg"
   width="1000"
   height="170.29257"
   inkscape:version="0.92.4 (5da689c313, 2019-01-14)"><metadata
   id="metadata40"><rdf:RDF><cc:Work
       rdf:about=""><dc:format>image/svg+xml</dc:format><dc:type
         rdf:resource="http://purl.org/dc/dcmitype/StillImage" /><dc:title></dc:title></cc:Work></rdf:RDF></metadata><defs
   id="defs38" /><sodipodi:namedview
   pagecolor="#ffffff"
   bordercolor="#666666"
   borderopacity="1"
   objecttolerance="10"
   gridtolerance="10"
   guidetolerance="10"
   inkscape:pageopacity="0"
   inkscape:pageshadow="2"
   inkscape:window-width="1920"
   inkscape:window-height="1017"
   id="namedview36"
   showgrid="false"
   fit-margin-top="0"
   fit-margin-left="0"
   fit-margin-right="0"
   fit-margin-bottom="0"
   inkscape:zoom="1.0306136"
   inkscape:cx="590.05571"
   inkscape:cy="-34.533329"
   inkscape:window-x="1912"
   inkscape:window-y="-8"
   inkscape:window-maximized="1"
   inkscape:current-layer="Plan_x0020_1" />
<style
   type="text/css"
   id="style2">
	.st0{fill-rule:evenodd;clip-rule:evenodd;}
</style>
<g
   id="Plan_x0020_1"
   transform="translate(0,147.59257)">
	
	<path
   class="st0"
   d="m 120.7802,-147.59257 v 0 h 49.51237 v 42.76069 H 120.7802 c -7.50188,0 -14.25357,6.001497 -14.25357,14.25356 V 22.7 H 63.765941 v -113.27832 0 c 0,-7.501875 6.001501,-14.25356 14.253564,-14.25356 h 3.750938 10.502625 c 7.501876,0 14.253562,-6.0015 14.253562,-14.25357 v -14.25356 c 0,-8.25206 6.0015,-14.25356 14.25357,-14.25356 z"
   id="path6"
   inkscape:connector-curvature="0"
   style="clip-rule:evenodd;fill-rule:evenodd;stroke-width:7.5018754" />
	<polygon
   class="st0"
   points="8.5,0 8.5,5.7 0,5.7 0,0 "
   id="polygon8"
   transform="matrix(7.5018755,0,0,7.5018755,0,-147.59257)"
   style="clip-rule:evenodd;fill-rule:evenodd" />
	<path
   class="st0"
   d="M 404.35109,-34.314254 V -147.59257 H 361.5904 v 127.53188 h 28.50712 c 7.50188,0 14.25357,-6.001501 14.25357,-14.253564 z"
   id="path10"
   inkscape:connector-curvature="0"
   style="clip-rule:evenodd;fill-rule:evenodd;stroke-width:7.5018754" />
	<path
   class="st0"
   d="m 248.31208,22.7 v 0 h 28.50712 v -42.76069 h -28.50712 c -7.50188,0 -14.25357,-6.001501 -14.25357,-14.253564 V -147.59257 h -42.76069 v 113.278316 0 c 0,7.501876 6.0015,14.253564 14.25357,14.253564 h 3.75094 10.50262 c 7.50188,0 14.25356,6.0015 14.25356,14.2535632 V 8.4464366 C 234.05851,15.948312 240.06002,22.7 248.31208,22.7 Z"
   id="path12"
   inkscape:connector-curvature="0"
   style="clip-rule:evenodd;fill-rule:evenodd;stroke-width:7.5018754" />
	<path
   class="st0"
   d="m 333.08327,22.7 v 0 h 28.50713 v -42.76069 h -28.50713 c -7.50187,0 -14.25356,-6.001501 -14.25356,-14.253564 V -147.59257 h -42.76069 v 113.278316 0 c 0,7.501876 6.0015,14.253564 14.25356,14.253564 h 3.75094 10.50262 c 7.50188,0 14.25357,6.0015 14.25357,14.2535632 V 8.4464366 C 318.82971,15.948312 325.5814,22.7 333.08327,22.7 Z"
   id="path14"
   inkscape:connector-curvature="0"
   style="clip-rule:evenodd;fill-rule:evenodd;stroke-width:7.5018754" />
	<path
   class="st0"
   d="M 786.94674,-90.57832 V 22.7 h -42.76069 v -127.53188 h 28.50712 c 7.50188,0 14.25357,6.001497 14.25357,14.25356 z"
   id="path16"
   inkscape:connector-curvature="0"
   style="clip-rule:evenodd;fill-rule:evenodd;stroke-width:7.5018754" />
	<path
   class="st0"
   d="m 673.66842,-147.59257 v 0 h 57.01425 c 7.50188,0 14.25356,6.0015 14.25356,14.25356 v 28.50713 H 674.4186 c -7.50187,0 -14.25356,6.001497 -14.25356,14.25356 V 22.7 h -42.76069 v -113.27832 0 c 0,-7.501875 6.0015,-14.25356 14.25356,-14.25356 h 3.75094 9.75244 c 7.50188,0 14.25356,-6.0015 14.25356,-14.25357 v -14.25356 c 0,-8.25206 6.0015,-14.25356 14.25357,-14.25356 z"
   id="path18"
   inkscape:connector-curvature="0"
   style="clip-rule:evenodd;fill-rule:evenodd;stroke-width:7.5018754" />
	<rect
   x="646.66162"
   y="-48.567818"
   class="st0"
   width="118.52963"
   height="28.507126"
   id="rect20"
   style="clip-rule:evenodd;fill-rule:evenodd;stroke-width:7.5018754" />
	<path
   class="st0"
   d="m 482.37059,22.7 v 0 H 595.64891 V -20.06069 H 482.37059 c -7.50187,0 -14.25356,-6.001501 -14.25356,-14.253564 V -48.567817 -104.83188 H 439.6099 c -7.50187,0 -14.25356,6.001497 -14.25356,14.25356 v 42.760691 14.253563 0 c 0,7.501875 6.0015,14.253563 14.25356,14.253563 h 3.75094 10.50263 c 7.50187,0 14.25356,6.001501 14.25356,14.2535638 V 9.1966242 c 0,6.7516878 6.0015,13.5033758 14.25356,13.5033758 z"
   id="path22"
   inkscape:connector-curvature="0"
   style="clip-rule:evenodd;fill-rule:evenodd;stroke-width:7.5018754" />
	<path
   class="st0"
   d="M 595.64891,-147.59257 H 482.37059 c -7.50187,0 -14.25356,6.0015 -14.25356,14.25356 v 28.50713 h 127.53188 c 0,0 0,-42.76069 0,-42.76069 z"
   id="path24"
   inkscape:connector-curvature="0"
   style="clip-rule:evenodd;fill-rule:evenodd;stroke-width:7.5018754" />
	<polygon
   class="st0"
   points="76.5,9.4 76.5,13.2 60.4,13.2 60.4,9.4 "
   id="polygon26"
   transform="matrix(7.5018755,0,0,7.5018755,0,-147.59257)"
   style="clip-rule:evenodd;fill-rule:evenodd" />
	<path
   class="st0"
   d="m 864.96624,22.7 v 0 h 78.01951 c 7.50187,0 14.25356,-6.0015 14.25356,-14.2535634 V -20.06069 h -92.27307 c -7.50187,0 -14.25356,-6.001501 -14.25356,-14.253564 v -14.253563 -56.264063 h -28.50713 c -7.50187,0 -14.25356,6.001497 -14.25356,14.25356 v 42.760691 14.253563 0 c 0,7.501875 6.0015,14.253563 14.25356,14.253563 h 3.75094 10.50262 c 7.50188,0 14.25357,6.001501 14.25357,14.2535638 V 9.1966242 c 0,6.7516878 6.0015,13.5033758 14.25356,13.5033758 z"
   id="path28"
   inkscape:connector-curvature="0"
   style="clip-rule:evenodd;fill-rule:evenodd;stroke-width:7.5018754" />
	<path
   class="st0"
   d="M 978.24456,-147.59257 H 864.96624 c -7.50187,0 -14.25356,6.0015 -14.25356,14.25356 v 28.50713 h 127.53188 z"
   id="path30"
   inkscape:connector-curvature="0"
   style="clip-rule:evenodd;fill-rule:evenodd;stroke-width:7.5018754" />
	<path
   class="st0"
   d="m 957.23931,-48.567817 h -63.76594 v -28.507127 h 92.27307 c 7.50187,0 14.25356,6.751688 14.25356,14.253564 v 14.253563 28.507127 h -42.76069 c 0,0 0,-28.507127 0,-28.507127 z"
   id="path32"
   inkscape:connector-curvature="0"
   style="clip-rule:evenodd;fill-rule:evenodd;stroke-width:7.5018754" />
</g>
</svg>